<mxfile><diagram id="kaVGInrfpdh9gRv1jg1P" name="Page-1"><mxGraphModel dx="746" dy="419" grid="1" gridSize="10" guides="1" tooltips="1" connect="1" arrows="1" fold="1" page="1" pageScale="1" pageWidth="850" pageHeight="1100" background="#ffffff" math="0" shadow="0"><root><mxCell id="0"/><mxCell id="1" parent="0"/><mxCell id="2" value="&lt;font color=&quot;#000000&quot;&gt;Users&lt;/font&gt;" style="rounded=0;whiteSpace=wrap;html=1;fillColor=#dae8fc;gradientColor=#7ea6e0;strokeColor=#6c8ebf;" vertex="1" parent="1"><mxGeometry x="340" y="160" width="120" height="60" as="geometry"/></mxCell><mxCell id="6" style="edgeStyle=none;html=1;exitX=1;exitY=1;exitDx=0;exitDy=0;entryX=0.25;entryY=0;entryDx=0;entryDy=0;endArrow=none;endFill=0;strokeWidth=4;rounded=0;strokeColor=#000000;" edge="1" parent="1" source="3" target="2"><mxGeometry relative="1" as="geometry"><Array as="points"><mxPoint x="330" y="130"/></Array></mxGeometry></mxCell><mxCell id="3" value="&lt;font color=&quot;#000000&quot;&gt;FIRST_NAME&lt;/font&gt;" style="ellipse;whiteSpace=wrap;html=1;fillColor=#f8cecc;gradientColor=#ea6b66;strokeColor=#b85450;rounded=0;" vertex="1" parent="1"><mxGeometry x="200" y="40" width="120" height="80" as="geometry"/></mxCell><mxCell id="7" style="edgeStyle=none;html=1;exitX=0;exitY=1;exitDx=0;exitDy=0;entryX=0.75;entryY=0;entryDx=0;entryDy=0;endArrow=none;endFill=0;strokeWidth=4;rounded=0;strokeColor=#000000;" edge="1" parent="1" source="4" target="2"><mxGeometry relative="1" as="geometry"/></mxCell><mxCell id="4" value="&lt;font color=&quot;#000000&quot;&gt;LAST_NAME&lt;/font&gt;" style="ellipse;whiteSpace=wrap;html=1;fillColor=#f8cecc;gradientColor=#ea6b66;strokeColor=#b85450;rounded=0;" vertex="1" parent="1"><mxGeometry x="480" y="40" width="120" height="80" as="geometry"/></mxCell><mxCell id="8" style="edgeStyle=none;html=1;exitX=0.5;exitY=0;exitDx=0;exitDy=0;entryX=0.5;entryY=1;entryDx=0;entryDy=0;endArrow=none;endFill=0;strokeWidth=4;rounded=0;strokeColor=#000000;" edge="1" parent="1" source="5" target="2"><mxGeometry relative="1" as="geometry"/></mxCell><mxCell id="5" value="&lt;font style=&quot;&quot; color=&quot;#000000&quot;&gt;&lt;u&gt;EMAIL&lt;/u&gt;&lt;/font&gt;" style="ellipse;whiteSpace=wrap;html=1;fillColor=#d5e8d4;gradientColor=#97d077;strokeColor=#82b366;rounded=0;" vertex="1" parent="1"><mxGeometry x="340" y="280" width="120" height="80" as="geometry"/></mxCell></root></mxGraphModel></diagram></mxfile>